<?xml version="1.0" encoding="UTF-8"?>
<svg version="1.1" xmlns="http://www.w3.org/2000/svg" width="113" height="123">
<path d="M0 0 C37.29 0 74.58 0 113 0 C113 40.59 113 81.18 113 123 C75.71 123 38.42 123 0 123 C0 82.41 0 41.82 0 0 Z " fill="#6C4BF4" transform="translate(0,0)"/>
<path d="M0 0 C1 1 1 1 1.0625 4.5625 C1.041875 5.696875 1.02125 6.83125 1 8 C1.73347656 8.11472656 2.46695313 8.22945312 3.22265625 8.34765625 C9.97728974 9.93418761 14.82464712 14.12859929 18.4375 19.9375 C23.50606735 29.41473812 24.59400515 39.80604821 22.25 50.375 C18.66472307 60.77230311 13.81251198 69.14355834 3.7578125 74.1875 C2.88769531 74.5896875 2.88769531 74.5896875 2 75 C5.68857657 78.33161754 9.354632 80.15977689 13.9140625 81.97265625 C16.17551201 83.08644131 17.50400025 83.9669747 19 86 C19.339737 90.01037373 18.51744313 93.85012637 16.875 97.5 C13.98682716 99.81053828 11.59475135 100.35566444 8 100 C-3.30164966 96.81643672 -12.93827539 90.10287435 -19 80 C-19 79.34 -19 78.68 -19 78 C-19.60585938 77.97421875 -20.21171875 77.9484375 -20.8359375 77.921875 C-30.71120019 77.25339568 -39.89201173 74.13856027 -47 67 C-53.60676286 58.20596418 -56.5703385 49.05149399 -56.4375 38.125 C-56.42992676 37.24875977 -56.42235352 36.37251953 -56.41455078 35.46972656 C-56.15126662 25.10363349 -53.24834514 16.58510454 -46 9 C-34.39458161 -1.52535208 -14.68108433 -8.73874067 0 0 Z " fill="#FCFCFE" transform="translate(71,15)"/>
<path d="M0 0 C1.8871875 0.0309375 1.8871875 0.0309375 3.8125 0.0625 C3.73 1.09375 3.6475 2.125 3.5625 3.1875 C3.70466678 5.19677326 3.70466678 5.19677326 4.8125 7.0625 C7.72339319 8.88344972 10.65882002 10.20142347 13.83203125 11.5078125 C17.74856912 13.55077721 19.8519713 16.14144261 21.8125 20.0625 C22.47541888 27.734971 22.66837244 34.75733641 17.8125 41.0625 C13.83691368 45.31038675 9.54908722 47.72962447 3.76171875 48.43359375 C-3.71248659 48.5857632 -8.43506 47.94637851 -14.1875 43.0625 C-14.950625 42.505625 -15.71375 41.94875 -16.5 41.375 C-21.3679987 34.70403882 -22.06181947 26.06312197 -21.1875 18.0625 C-19.61652206 10.90176334 -15.98008394 7.07316044 -10.0625 2.8125 C-6.53805351 0.66718475 -4.05167126 -0.06642084 0 0 Z " fill="#6E4DF4" transform="translate(54.1875,28.9375)"/>
</svg>
